<svg width="37" height="37" viewBox="0 0 37 37" fill="none" xmlns="http://www.w3.org/2000/svg">
<g clip-path="url(#clip0)">
<path d="M18.3409 37.0001C24.9559 37.0001 30.3184 31.5507 30.3184 24.8285C30.3184 18.1063 24.9559 12.657 18.3409 12.657C11.7259 12.657 6.3634 18.1063 6.3634 24.8285C6.3634 31.5507 11.7259 37.0001 18.3409 37.0001Z" fill="#F6F6F6"/>
<path d="M19.2164 20.3227C18.8278 20.3227 18.514 20.0039 18.514 19.6089V18.1244C18.514 17.7294 18.8278 17.4106 19.2164 17.4106C19.605 17.4106 19.9187 17.7294 19.9187 18.1244V19.6089C19.9187 20.0039 19.605 20.3227 19.2164 20.3227Z" fill="#5F82A6"/>
<path d="M19.2164 30.624C18.8278 30.624 18.514 30.3052 18.514 29.9102V28.4257C18.514 28.0307 18.8278 27.7119 19.2164 27.7119C19.605 27.7119 19.9187 28.0307 19.9187 28.4257V29.9102C19.9187 30.3052 19.605 30.624 19.2164 30.624Z" fill="#5F82A6"/>
<path d="M19.2163 24.5566C17.4839 24.5566 16.0745 23.2862 16.0745 21.7255C16.0745 20.1648 17.4839 18.8943 19.2163 18.8943C20.9488 18.8943 22.3629 20.1648 22.3629 21.7255C22.3629 22.1204 22.0492 22.4392 21.6605 22.4392C21.2719 22.4392 20.9582 22.1204 20.9582 21.7255C20.9582 20.9499 20.1762 20.3218 19.2163 20.3218C18.2564 20.3218 17.4792 20.9499 17.4792 21.7255C17.4792 22.5011 18.2611 23.1291 19.2163 23.1291C19.605 23.1291 19.9187 23.4479 19.9187 23.8429C19.9187 24.2378 19.605 24.5566 19.2163 24.5566Z" fill="#333750"/>
<path d="M19.2163 28.7913C17.4839 28.7913 16.0745 27.5208 16.0745 25.9601C16.0745 25.5652 16.3882 25.2464 16.7768 25.2464C17.1655 25.2464 17.4792 25.5652 17.4792 25.9601C17.4792 26.7357 18.2611 27.3638 19.2163 27.3638C20.1715 27.3638 20.9582 26.7357 20.9582 25.9601C20.9582 25.1846 20.1762 24.5565 19.2163 24.5565C18.8277 24.5565 18.514 24.2377 18.514 23.8427C18.514 23.4478 18.8277 23.129 19.2163 23.129C20.9488 23.129 22.3629 24.3994 22.3629 25.9601C22.3629 27.5208 20.9488 28.7913 19.2163 28.7913Z" fill="#333750"/>
<path d="M5.08041 32.5987C4.69177 32.5987 4.37805 32.2799 4.37805 31.885V15.1931C4.37805 14.7982 4.69177 14.4794 5.08041 14.4794C5.46904 14.4794 5.78276 14.7982 5.78276 15.1931V31.885C5.78276 32.2799 5.46904 32.5987 5.08041 32.5987Z" fill="#5F82A6"/>
<path d="M10.3947 32.5987C10.0061 32.5987 9.69238 32.2799 9.69238 31.885V15.1931C9.69238 14.7982 10.0061 14.4794 10.3947 14.4794C10.7834 14.4794 11.0971 14.7982 11.0971 15.1931V31.885C11.0971 32.2799 10.7834 32.5987 10.3947 32.5987Z" fill="#5F82A6"/>
<path d="M28.0332 32.5987C27.6445 32.5987 27.3308 32.2799 27.3308 31.885V15.1931C27.3308 14.7982 27.6445 14.4794 28.0332 14.4794C28.4218 14.4794 28.7355 14.7982 28.7355 15.1931V31.885C28.7355 32.2799 28.4218 32.5987 28.0332 32.5987Z" fill="#5F82A6"/>
<path d="M33.3476 32.5987C32.959 32.5987 32.6453 32.2799 32.6453 31.885V15.1931C32.6453 14.7982 32.959 14.4794 33.3476 14.4794C33.7363 14.4794 34.05 14.7982 34.05 15.1931V31.885C34.05 32.2799 33.7363 32.5987 33.3476 32.5987Z" fill="#5F82A6"/>
<path d="M36.2976 33.4499H0.894248C0.505613 33.4499 0.191895 33.1311 0.191895 32.7362C0.191895 32.3413 0.505613 32.0225 0.894248 32.0225H36.2976C36.6862 32.0225 36.9999 32.3413 36.9999 32.7362C36.9999 33.1311 36.6862 33.4499 36.2976 33.4499Z" fill="#5F82A6"/>
<path d="M36.2976 15.0597H0.894248C0.505613 15.0597 0.191895 14.7409 0.191895 14.346C0.191895 13.951 0.505613 13.6322 0.894248 13.6322H36.2976C36.6862 13.6322 36.9999 13.951 36.9999 14.346C36.9999 14.7409 36.6862 15.0597 36.2976 15.0597Z" fill="#5F82A6"/>
<path d="M35.9838 11.5771C35.862 11.5771 35.7356 11.5438 35.6232 11.4772L19.6142 1.7609C18.8791 1.31362 17.8115 1.31362 17.0764 1.7609L1.06274 11.4724C0.730293 11.6723 0.299516 11.5629 0.0981744 11.225C-0.0984847 10.8872 0.00920959 10.4494 0.341657 10.2448L16.3506 0.533274C17.5212 -0.175702 19.1601 -0.180461 20.3306 0.533274L36.3396 10.2496C36.6721 10.4494 36.7798 10.8919 36.5831 11.2298C36.452 11.4534 36.2226 11.5771 35.9838 11.5771Z" fill="#333750"/>
</g>
<defs>
<clipPath id="clip0">
<rect width="37" height="37" fill="white"/>
</clipPath>
</defs>
</svg>
