<svg width="60" height="29" viewBox="0 0 60 29" fill="none" xmlns="http://www.w3.org/2000/svg">
<g clip-path="url(#clip0)">
<path d="M18.2702 24.1882C17.8455 24.1882 17.498 23.8361 17.498 23.4058V5.17563C17.498 4.74531 17.8455 4.39322 18.2702 4.39322C18.695 4.39322 19.0424 4.74531 19.0424 5.17563V23.4058C19.0424 23.84 18.695 24.1882 18.2702 24.1882Z" fill="#5F82A6"/>
<path d="M23.3011 24.1882C22.8764 24.1882 22.5289 23.8361 22.5289 23.4058V5.17563C22.5289 4.74531 22.8764 4.39322 23.3011 4.39322C23.7258 4.39322 24.0733 4.74531 24.0733 5.17563V23.4058C24.0733 23.84 23.7258 24.1882 23.3011 24.1882Z" fill="#5F82A6"/>
<path d="M28.332 24.1882C27.9073 24.1882 27.5598 23.8361 27.5598 23.4058V5.17563C27.5598 4.74531 27.9073 4.39322 28.332 4.39322C28.7567 4.39322 29.1042 4.74531 29.1042 5.17563V23.4058C29.1042 23.84 28.7567 24.1882 28.332 24.1882Z" fill="#5F82A6"/>
<path d="M33.363 24.1882C32.9382 24.1882 32.5908 23.8361 32.5908 23.4058V5.17563C32.5908 4.74531 32.9382 4.39322 33.363 4.39322C33.7877 4.39322 34.1352 4.74531 34.1352 5.17563V23.4058C34.1352 23.84 33.7877 24.1882 33.363 24.1882Z" fill="#5F82A6"/>
<path d="M38.3938 24.1882C37.9691 24.1882 37.6216 23.8361 37.6216 23.4058V5.17563C37.6216 4.74531 37.9691 4.39322 38.3938 4.39322C38.8186 4.39322 39.166 4.74531 39.166 5.17563V23.4058C39.166 23.84 38.8186 24.1882 38.3938 24.1882Z" fill="#5F82A6"/>
<path d="M43.4209 24.1882C42.9962 24.1882 42.6487 23.8361 42.6487 23.4058V5.17563C42.6487 4.74531 42.9962 4.39322 43.4209 4.39322C43.8456 4.39322 44.1931 4.74531 44.1931 5.17563V23.4058C44.1931 23.84 43.8495 24.1882 43.4209 24.1882Z" fill="#5F82A6"/>
<path d="M18.2433 24.2195C17.8186 24.2195 17.4711 23.8674 17.4711 23.437V5.2069C17.4711 4.77658 17.8186 4.42449 18.2433 4.42449C18.668 4.42449 19.0155 4.77658 19.0155 5.2069V23.437C19.0155 23.8674 18.668 24.2195 18.2433 24.2195Z" fill="#5F82A6"/>
<path d="M23.2742 24.2195C22.8494 24.2195 22.502 23.8674 22.502 23.437V5.2069C22.502 4.77658 22.8494 4.42449 23.2742 4.42449C23.6989 4.42449 24.0464 4.77658 24.0464 5.2069V23.437C24.0464 23.8674 23.6989 24.2195 23.2742 24.2195Z" fill="#5F82A6"/>
<path d="M28.3011 24.2195C27.8764 24.2195 27.5289 23.8674 27.5289 23.437V5.2069C27.5289 4.77658 27.8764 4.42449 28.3011 4.42449C28.7258 4.42449 29.0733 4.77658 29.0733 5.2069V23.437C29.0733 23.8674 28.7297 24.2195 28.3011 24.2195Z" fill="#5F82A6"/>
<path d="M33.3321 24.2195C32.9074 24.2195 32.5599 23.8674 32.5599 23.437V5.2069C32.5599 4.77658 32.9074 4.42449 33.3321 4.42449C33.7568 4.42449 34.1043 4.77658 34.1043 5.2069V23.437C34.1043 23.8674 33.7606 24.2195 33.3321 24.2195Z" fill="#5F82A6"/>
<path d="M38.363 24.2195C37.9382 24.2195 37.5908 23.8674 37.5908 23.437V5.2069C37.5908 4.77658 37.9382 4.42449 38.363 4.42449C38.7877 4.42449 39.1352 4.77658 39.1352 5.2069V23.437C39.1352 23.8674 38.7915 24.2195 38.363 24.2195Z" fill="#5F82A6"/>
<path d="M43.3938 24.2195C42.9691 24.2195 42.6216 23.8674 42.6216 23.437V5.2069C42.6216 4.77658 42.9691 4.42449 43.3938 4.42449C43.8186 4.42449 44.166 4.77658 44.166 5.2069V23.437C44.166 23.8674 43.8224 24.2195 43.3938 24.2195Z" fill="#5F82A6"/>
<path d="M50.8996 15.8829H9.10039C8.67568 15.8829 8.32819 15.5308 8.32819 15.1005C8.32819 14.6702 8.67568 14.3181 9.10039 14.3181H50.8996C51.3243 14.3181 51.6718 14.6702 51.6718 15.1005C51.6718 15.5308 51.3243 15.8829 50.8996 15.8829Z" fill="#333750"/>
<path d="M59.2278 17.436H0.772201C0.34749 17.436 0 17.0839 0 16.6536C0 16.2232 0.34749 15.8712 0.772201 15.8712H59.2278C59.6525 15.8712 60 16.2232 60 16.6536C60 17.0839 59.6525 17.436 59.2278 17.436Z" fill="white"/>
<path d="M12.7181 29C9.22007 29 6.37451 26.1169 6.37451 22.5725C6.37451 22.1422 6.722 21.7901 7.14671 21.7901C7.57142 21.7901 7.91891 22.1422 7.91891 22.5725C7.91891 25.2523 10.0695 27.4352 12.7181 27.4352C13.1428 27.4352 13.4903 27.7873 13.4903 28.2176C13.4903 28.6479 13.1467 29 12.7181 29Z" fill="#333750"/>
<path d="M7.15056 7.2099C6.72585 7.2099 6.37836 6.85782 6.37836 6.42749C6.37836 2.88318 9.22392 0 12.7181 0C13.1428 0 13.4903 0.352084 13.4903 0.782409C13.4903 1.21273 13.1428 1.56482 12.7181 1.56482C10.0733 1.56482 7.9189 3.74383 7.9189 6.42749C7.92276 6.85782 7.57527 7.2099 7.15056 7.2099Z" fill="#333750"/>
<path d="M53.6834 7.2099C53.2587 7.2099 52.9112 6.85782 52.9112 6.42749C52.9112 3.74774 50.7606 1.56482 48.1158 1.56482C47.6911 1.56482 47.3436 1.21273 47.3436 0.782409C47.3436 0.352084 47.6911 0 48.1158 0C51.6139 0 54.4556 2.88318 54.4556 6.42749C54.4556 6.85782 54.112 7.2099 53.6834 7.2099Z" fill="#333750"/>
<path d="M48.1158 29C47.6911 29 47.3436 28.6479 47.3436 28.2176C47.3436 27.7873 47.6911 27.4352 48.1158 27.4352C50.7606 27.4352 52.9112 25.2562 52.9112 22.5725C52.9112 22.1422 53.2587 21.7901 53.6834 21.7901C54.1081 21.7901 54.4556 22.1422 54.4556 22.5725C54.4556 26.1169 51.61 29 48.1158 29Z" fill="#333750"/>
</g>
<defs>
<clipPath id="clip0">
<rect width="60" height="29" fill="white"/>
</clipPath>
</defs>
</svg>
