<svg width="37" height="45" viewBox="0 0 37 45" fill="none" xmlns="http://www.w3.org/2000/svg">
<g clip-path="url(#clip0)">
<path d="M23.2311 33.487C29.4873 33.487 34.559 28.5091 34.559 22.3686C34.559 16.2281 29.4873 11.2502 23.2311 11.2502C16.9749 11.2502 11.9032 16.2281 11.9032 22.3686C11.9032 28.5091 16.9749 33.487 23.2311 33.487Z" fill="#F6F6F6"/>
<path d="M27.1858 5.20295H18.1368C15.9305 5.20295 14.1375 3.44308 14.1375 1.27751C14.1375 0.822464 14.5117 0.455139 14.9753 0.455139C15.4389 0.455139 15.8132 0.822464 15.8132 1.27751C15.8132 2.53299 16.8577 3.55821 18.1368 3.55821H27.1858C28.4649 3.55821 29.5094 2.53299 29.5094 1.27751C29.5094 0.822464 29.8837 0.455139 30.3473 0.455139C30.8109 0.455139 31.1852 0.822464 31.1852 1.27751C31.1852 3.4376 29.3921 5.20295 27.1858 5.20295Z" fill="#5F82A6"/>
<path d="M30.8389 44.9999H15.6177C12.2216 44.9999 9.45667 42.2861 9.45667 38.9527C9.45667 38.4977 9.83091 38.1304 10.2945 38.1304C10.7581 38.1304 11.1324 38.4977 11.1324 38.9527C11.1324 41.3815 13.1433 43.3551 15.6177 43.3551H30.8445C33.319 43.3551 35.3298 41.3815 35.3298 38.9527C35.3298 38.4977 35.7041 38.1304 36.1677 38.1304C36.6313 38.1304 37.0056 38.4977 37.0056 38.9527C37 42.2861 34.235 44.9999 30.8389 44.9999Z" fill="#333750"/>
<path d="M9.13834 28.2677C8.93725 28.2677 8.73617 28.1964 8.57418 28.0538C8.23345 27.7468 8.20552 27.2315 8.51832 26.8916L12.9311 22.1163L8.51832 17.3411C8.20552 17.0067 8.23345 16.4859 8.57418 16.1788C8.91491 15.8718 9.44556 15.8992 9.75836 16.2337L14.685 21.5626C14.9754 21.8751 14.9754 22.3521 14.685 22.6701L9.75836 27.999C9.59079 28.1799 9.36736 28.2677 9.13834 28.2677Z" fill="#5F82A6"/>
<path d="M23.2256 17.4396C22.7619 17.4396 22.3877 17.0723 22.3877 16.6172V14.6052C22.3877 14.1501 22.7619 13.7828 23.2256 13.7828C23.6892 13.7828 24.0634 14.1501 24.0634 14.6052V16.6172C24.0634 17.0723 23.6892 17.4396 23.2256 17.4396Z" fill="#5F82A6"/>
<path d="M23.2256 31.431C22.7619 31.431 22.3877 31.0637 22.3877 30.6086V28.5966C22.3877 28.1415 22.7619 27.7742 23.2256 27.7742C23.6892 27.7742 24.0634 28.1415 24.0634 28.5966V30.6086C24.0634 31.0637 23.6892 31.431 23.2256 31.431Z" fill="#5F82A6"/>
<path d="M23.2255 23.1905C20.8683 23.1905 18.9524 21.5293 18.9524 19.4953C18.9524 17.4559 20.8683 15.7947 23.2255 15.7947C25.5827 15.7947 27.4986 17.4559 27.4986 19.4953C27.4986 19.9504 27.1243 20.3177 26.6607 20.3177C26.1971 20.3177 25.8229 19.9504 25.8229 19.4953C25.8229 18.3605 24.661 17.4394 23.2255 17.4394C21.79 17.4394 20.6281 18.3605 20.6281 19.4953C20.6281 20.6247 21.79 21.5458 23.2255 21.5458C23.6891 21.5458 24.0634 21.9131 24.0634 22.3681C24.0634 22.8232 23.6891 23.1905 23.2255 23.1905Z" fill="#333750"/>
<path d="M23.2255 28.9415C20.8683 28.9415 18.9524 27.2804 18.9524 25.2464C18.9524 24.7913 19.3266 24.424 19.7903 24.424C20.2539 24.424 20.6281 24.7913 20.6281 25.2464C20.6281 26.3757 21.79 27.2968 23.2255 27.2968C24.661 27.2968 25.8229 26.3757 25.8229 25.2464C25.8229 24.1115 24.661 23.1904 23.2255 23.1904C22.7619 23.1904 22.3876 22.8231 22.3876 22.3681C22.3876 21.913 22.7619 21.5457 23.2255 21.5457C25.5827 21.5457 27.4986 23.2069 27.4986 25.2464C27.4986 27.2804 25.5827 28.9415 23.2255 28.9415Z" fill="#333750"/>
<path d="M13.4449 22.9386H0.837862C0.374245 22.9386 0 22.5712 0 22.1162C0 21.6611 0.374245 21.2938 0.837862 21.2938H13.4449C13.9085 21.2938 14.2828 21.6611 14.2828 22.1162C14.2828 22.5712 13.9085 22.9386 13.4449 22.9386Z" fill="#5F82A6"/>
<path d="M23.2255 42.7902C21.79 42.7902 20.6169 41.6443 20.6169 40.2299C20.6169 38.8154 21.7844 37.6696 23.2255 37.6696C24.6666 37.6696 25.834 38.8154 25.834 40.2299C25.834 41.6443 24.6666 42.7902 23.2255 42.7902ZM23.2255 39.3143C22.7116 39.3143 22.2927 39.7255 22.2927 40.2299C22.2927 40.7343 22.7116 41.1454 23.2255 41.1454C23.7394 41.1454 24.1583 40.7343 24.1583 40.2299C24.1583 39.7255 23.7394 39.3143 23.2255 39.3143Z" fill="#5F82A6"/>
<path d="M32.9391 37.5987H13.5175C11.2776 37.5987 9.45667 35.8114 9.45667 33.6129V30.6086C9.45667 30.1535 9.83091 29.7862 10.2945 29.7862C10.7581 29.7862 11.1324 30.1535 11.1324 30.6086V33.6129C11.1324 34.9013 12.1993 35.9539 13.5175 35.9539H32.9447C34.2574 35.9539 35.3298 34.9068 35.3298 33.6129V3.98575C35.3298 2.69737 34.263 1.64474 32.9447 1.64474H13.5175C12.2049 1.64474 11.1324 2.69189 11.1324 3.98575V13.273C11.1324 13.7281 10.7581 14.0954 10.2945 14.0954C9.83091 14.0954 9.45667 13.7281 9.45667 13.273V3.98575C9.45667 1.78728 11.2776 0 13.5175 0H32.9447C35.1846 0 37.0056 1.78728 37.0056 3.98575V33.6184C37 35.8114 35.179 37.5987 32.9391 37.5987Z" fill="#5F82A6"/>
</g>
<defs>
<clipPath id="clip0">
<rect width="37" height="45" fill="white"/>
</clipPath>
</defs>
</svg>
