<svg width="50" height="46" viewBox="0 0 50 46" fill="none" xmlns="http://www.w3.org/2000/svg">
<path d="M14.2017 34.3714C15.8701 34.2872 17.4306 33.6193 18.6235 32.4596C18.6236 32.4595 18.6238 32.4593 18.6239 32.4592L24.8925 26.3781C24.8927 26.3779 24.893 26.3777 24.8932 26.3775C25.0846 26.1938 25.4492 26.1979 25.6312 26.3754L25.6324 26.3766L31.8819 32.4392L31.8835 32.4407C32.9696 33.4873 34.3558 34.1385 35.849 34.3127L29.0205 40.9408C26.7995 43.0946 23.1953 43.0946 20.9742 40.9408C20.9742 40.9408 20.9742 40.9408 20.9742 40.9408L14.2017 34.3714Z" stroke="#5F82A6" stroke-width="1.3"/>
<path d="M14.2133 11.6122H14.4882V11.6473C16.0441 11.7915 17.4926 12.4516 18.6187 13.5366L18.6204 13.5383L24.8912 19.6266L24.8921 19.6275C25.0918 19.8221 25.4285 19.8221 25.6281 19.6275L25.6293 19.6264L31.8782 13.5643L14.2133 11.6122ZM14.2133 11.6122L20.9764 5.05195C20.9764 5.05193 20.9764 5.05191 20.9764 5.05189C23.1974 2.89813 26.8014 2.89808 29.0225 5.05174C29.0225 5.05181 29.0226 5.05188 29.0227 5.05195L35.8596 11.6881C34.3584 11.8584 32.9659 12.5068 31.8788 13.5637L14.2133 11.6122Z" stroke="#5F82A6" stroke-width="1.3"/>
<path d="M43.5611 19.0891L43.561 19.089L38.9981 14.6632C38.9473 14.6687 38.8949 14.6717 38.8409 14.6717H36.6602C35.686 14.6717 34.7303 15.0586 34.0517 15.7169C34.0517 15.7169 34.0517 15.7169 34.0517 15.7169L27.8027 21.779C27.8026 21.7792 27.8025 21.7793 27.8024 21.7794C27.0981 22.464 26.1791 22.7996 25.2623 22.7996C24.3513 22.7996 23.4269 22.4643 22.7222 21.7793L43.5611 19.0891ZM43.5611 19.0891C45.7902 21.2508 45.7924 24.746 43.5603 26.9251C43.5601 26.9253 43.5599 26.9255 43.5597 26.9257L38.9981 31.3502C38.9473 31.3447 38.8949 31.3418 38.8409 31.3418H36.6602C35.6873 31.3418 34.7366 30.9557 34.0516 30.2914L27.8028 24.2293L43.5611 19.0891ZM16.4516 15.6913L22.7219 21.779L27.8022 24.2288C26.4352 22.8998 24.0869 22.9078 22.7228 24.2284L22.7224 24.2288L16.4516 30.3119C15.7729 30.9702 14.8172 31.3572 13.843 31.3572H11.1624C11.115 31.3572 11.0691 31.3596 11.025 31.3639L6.44255 26.9144L6.44227 26.9141C4.21215 24.7514 4.21215 21.2518 6.44227 19.0891L6.44255 19.0888L11.0251 14.6391C11.0697 14.6436 11.1156 14.6461 11.1624 14.6461H13.843C14.8177 14.6461 15.7678 15.0282 16.4514 15.6911C16.4515 15.6911 16.4515 15.6912 16.4515 15.6912C16.4516 15.6912 16.4516 15.6913 16.4516 15.6913Z" stroke="#323751" stroke-width="1.2"/>
</svg>
