<svg width="28" height="28" viewBox="0 0 28 28" fill="none" xmlns="http://www.w3.org/2000/svg">
<path d="M0 5.25V1.09375C0 0.489453 0.489453 0 1.09375 0H5.25C5.8543 0 6.34375 0.489453 6.34375 1.09375C6.34375 1.69805 5.8543 2.1875 5.25 2.1875H2.1875V5.25C2.1875 5.8543 1.69805 6.34375 1.09375 6.34375C0.489453 6.34375 0 5.8543 0 5.25Z" fill="#333750"/>
<path d="M26.9062 0H22.75C22.1457 0 21.6562 0.489453 21.6562 1.09375C21.6562 1.69805 22.1457 2.1875 22.75 2.1875H25.8125V5.25C25.8125 5.8543 26.302 6.34375 26.9062 6.34375C27.5105 6.34375 28 5.8543 28 5.25V1.09375C28 0.489453 27.5105 0 26.9062 0Z" fill="#333750"/>
<path d="M5.25 25.8125H2.1875V22.75C2.1875 22.1457 1.69805 21.6562 1.09375 21.6562C0.489453 21.6562 0 22.1457 0 22.75V26.9062C0 27.5105 0.489453 28 1.09375 28H5.25C5.8543 28 6.34375 27.5105 6.34375 26.9062C6.34375 26.302 5.8543 25.8125 5.25 25.8125Z" fill="#333750"/>
<path d="M26.9062 21.6562C26.302 21.6562 25.8125 22.1457 25.8125 22.75V25.8125H22.75C22.1457 25.8125 21.6562 26.302 21.6562 26.9062C21.6562 27.5105 22.1457 28 22.75 28H26.9062C27.5105 28 28 27.5105 28 26.9062V22.75C28 22.1457 27.5105 21.6562 26.9062 21.6562Z" fill="#333750"/>
<path d="M13.043 5.38672V11.9492C13.043 12.5535 12.5535 13.043 11.9492 13.043H5.38672C4.78242 13.043 4.29297 12.5535 4.29297 11.9492V5.38672C4.29297 4.78242 4.78242 4.29297 5.38672 4.29297H11.9492C12.5535 4.29297 13.043 4.78242 13.043 5.38672Z" fill="#333750"/>
<path d="M10.8555 6.48047H6.48047V10.8555H10.8555V6.48047Z" fill="#5F82A6"/>
<path d="M23.1602 4.29297H16.5977C15.9934 4.29297 15.5039 4.78242 15.5039 5.38672V11.9492C15.5039 12.5535 15.9934 13.043 16.5977 13.043H23.1602C23.7645 13.043 24.2539 12.5535 24.2539 11.9492V5.38672C24.2539 4.78242 23.7645 4.29297 23.1602 4.29297ZM22.0664 10.8555H17.6914V6.48047H22.0664V10.8555Z" fill="#333750"/>
<path d="M11.9492 15.5039H5.38672C4.78242 15.5039 4.29297 15.9934 4.29297 16.5977V23.1602C4.29297 23.7645 4.78242 24.2539 5.38672 24.2539H11.9492C12.5535 24.2539 13.043 23.7645 13.043 23.1602V16.5977C13.043 15.9934 12.5535 15.5039 11.9492 15.5039ZM10.8555 22.0664H6.48047V17.6914H10.8555V22.0664Z" fill="#333750"/>
<path d="M21.752 16.9102H18.0059C17.4016 16.9102 16.9121 17.3996 16.9121 18.0039V21.75C16.9121 22.3543 17.4016 22.8438 18.0059 22.8438H21.752C22.3562 22.8438 22.8457 22.3543 22.8457 21.75V18.0039C22.8457 17.3996 22.3562 16.9102 21.752 16.9102ZM20.6582 20.6562H19.0996V19.0977H20.6582V20.6562Z" fill="#5F82A6"/>
</svg>
