<svg width="44" height="44" viewBox="0 0 44 44" fill="none" xmlns="http://www.w3.org/2000/svg">
<path d="M21.5398 44C33.4162 44 43.0439 34.1503 43.0439 22C43.0439 9.84974 33.4162 0 21.5398 0C9.66337 0 0.0356445 9.84974 0.0356445 22C0.0356445 34.1503 9.66337 44 21.5398 44Z" fill="#F6F6F6"/>
<path d="M21.7717 32.617C27.1183 32.617 31.4526 28.3629 31.4526 23.1151C31.4526 17.8674 27.1183 13.6133 21.7717 13.6133C16.4251 13.6133 12.0908 17.8674 12.0908 23.1151C12.0908 28.3629 16.4251 32.617 21.7717 32.617Z" fill="#F6F6F6"/>
<path d="M25.1512 8.44813H17.4179C15.5323 8.44813 14 6.94413 14 5.09343C14 4.70454 14.3198 4.39062 14.716 4.39062C15.1123 4.39062 15.4321 4.70454 15.4321 5.09343C15.4321 6.16637 16.3248 7.04253 17.4179 7.04253H25.1512C26.2443 7.04253 27.137 6.16637 27.137 5.09343C27.137 4.70454 27.4568 4.39062 27.853 4.39062C28.2492 4.39062 28.5691 4.70454 28.5691 5.09343C28.5691 6.93945 27.0367 8.44813 25.1512 8.44813Z" fill="#5F82A6"/>
<path d="M28.2734 42.4567H15.2653C12.3629 42.4567 10 40.1374 10 37.2887C10 36.8999 10.3198 36.5859 10.716 36.5859C11.1123 36.5859 11.4321 36.8999 11.4321 37.2887C11.4321 39.3643 13.1506 41.0511 15.2653 41.0511H28.2782C30.3929 41.0511 32.1114 39.3643 32.1114 37.2887C32.1114 36.8999 32.4312 36.5859 32.8274 36.5859C33.2236 36.5859 33.5435 36.8999 33.5435 37.2887C33.5387 40.1374 31.1757 42.4567 28.2734 42.4567Z" fill="#333750"/>
<path d="M21.7669 40.5675C20.5401 40.5675 19.5376 39.5883 19.5376 38.3795C19.5376 37.1706 20.5353 36.1914 21.7669 36.1914C22.9985 36.1914 23.9962 37.1706 23.9962 38.3795C23.9962 39.5883 22.9985 40.5675 21.7669 40.5675ZM21.7669 37.597C21.3277 37.597 20.9697 37.9484 20.9697 38.3795C20.9697 38.8105 21.3277 39.1619 21.7669 39.1619C22.206 39.1619 22.5641 38.8105 22.5641 38.3795C22.5641 37.9484 22.206 37.597 21.7669 37.597Z" fill="#5F82A6"/>
<path d="M30.0683 36.1321H13.4704C11.5562 36.1321 10 34.6046 10 32.7258V30.1582C10 29.7694 10.3198 29.4554 10.716 29.4554C11.1123 29.4554 11.4321 29.7694 11.4321 30.1582V32.7258C11.4321 33.8269 12.3438 34.7265 13.4704 34.7265H30.073C31.1948 34.7265 32.1114 33.8316 32.1114 32.7258V7.40624C32.1114 6.30519 31.1996 5.4056 30.073 5.4056H13.4704C12.3486 5.4056 11.4321 6.3005 11.4321 7.40624V15.3432C11.4321 15.7321 11.1123 16.046 10.716 16.046C10.3198 16.046 10 15.7321 10 15.3432V7.40624C10 5.52742 11.5562 4 13.4704 4H30.073C31.9873 4 33.5435 5.52742 33.5435 7.40624V32.7305C33.5387 34.6046 31.9825 36.1321 30.0683 36.1321Z" fill="#5F82A6"/>
<path d="M22.3543 22.6128C19.9751 22.6128 18.0391 20.8812 18.0391 18.7576C18.0391 16.6339 19.9751 14.9023 22.3543 14.9023C24.7334 14.9023 26.6694 16.6339 26.6694 18.7576C26.6694 19.0965 26.402 19.3701 26.0707 19.3701C25.7393 19.3701 25.4719 19.0965 25.4719 18.7576C25.4719 17.3078 24.0747 16.1275 22.3543 16.1275C20.6338 16.1275 19.2366 17.3078 19.2366 18.7576C19.2366 20.2073 20.6338 21.3876 22.3543 21.3876C22.6856 21.3876 22.953 21.6612 22.953 22.0002C22.953 22.3391 22.6856 22.6128 22.3543 22.6128Z" fill="#333750"/>
<path d="M22.3543 29.101C19.9751 29.101 18.0391 27.3695 18.0391 25.2458C18.0391 24.9069 18.3065 24.6332 18.6378 24.6332C18.9692 24.6332 19.2366 24.9069 19.2366 25.2458C19.2366 26.6956 20.6338 27.8759 22.3543 27.8759C24.0747 27.8759 25.4719 26.6956 25.4719 25.2458C25.4719 23.796 24.0747 22.6158 22.3543 22.6158C22.0229 22.6158 21.7555 22.3422 21.7555 22.0032C21.7555 21.6642 22.0229 21.3906 22.3543 21.3906C24.7334 21.3906 26.6694 23.1222 26.6694 25.2458C26.6694 27.3695 24.7334 29.101 22.3543 29.101Z" fill="#333750"/>
<path d="M22.3542 16.1286C22.0228 16.1286 21.7554 15.855 21.7554 15.5161V13.2454C21.7554 12.9064 22.0228 12.6328 22.3542 12.6328C22.6855 12.6328 22.9529 12.9064 22.9529 13.2454V15.5161C22.9529 15.855 22.6855 16.1286 22.3542 16.1286Z" fill="#5F82A6"/>
<path d="M22.3542 31.9099C22.0228 31.9099 21.7554 31.6363 21.7554 31.2973V29.0266C21.7554 28.6877 22.0228 28.4141 22.3542 28.4141C22.6855 28.4141 22.9529 28.6877 22.9529 29.0266V31.2973C22.9529 31.6363 22.6855 31.9099 22.3542 31.9099Z" fill="#5F82A6"/>
</svg>
