<svg width="49" height="44" viewBox="0 0 49 44" fill="none" xmlns="http://www.w3.org/2000/svg">
<g clip-path="url(#clip0)">
<path d="M23.5399 44.0001C35.4163 44.0001 45.0441 34.1503 45.0441 22.0001C45.0441 9.84981 35.4163 7.62939e-05 23.5399 7.62939e-05C11.6635 7.62939e-05 2.03583 9.84981 2.03583 22.0001C2.03583 34.1503 11.6635 44.0001 23.5399 44.0001Z" fill="#F6F6F6"/>
<path d="M35.9666 36.9349H6.35902C2.85018 36.9349 0 34.015 0 30.4293V13.5709C0 9.98525 2.85018 7.06526 6.35902 7.06526C6.69035 7.06526 6.9578 7.33888 6.9578 7.67785C6.9578 8.01681 6.69035 8.29043 6.35902 8.29043C3.51283 8.29452 1.19756 10.6632 1.19756 13.5709V30.4293C1.19756 33.3411 3.51283 35.7098 6.35902 35.7098H35.9666C36.2979 35.7098 36.5654 35.9834 36.5654 36.3224C36.5654 36.6613 36.2939 36.9349 35.9666 36.9349Z" fill="#5F82A6"/>
<path d="M42.641 36.9349C42.3097 36.9349 42.0422 36.6613 42.0422 36.3224C42.0422 35.9834 42.3097 35.7098 42.641 35.7098C45.4872 35.7098 47.8025 33.3411 47.8025 30.4293V13.5709C47.8025 10.6591 45.4872 8.29043 42.641 8.29043H12.4826C12.1512 8.29043 11.8838 8.01681 11.8838 7.67785C11.8838 7.33888 12.1512 7.06526 12.4826 7.06526H42.641C46.1459 7.06526 49 9.98117 49 13.5709V30.4293C49 34.015 46.1459 36.9349 42.641 36.9349Z" fill="#333750"/>
<path d="M31.9947 42.9464C31.851 42.9464 31.7073 42.8933 31.5915 42.7871C31.348 42.5585 31.328 42.1705 31.5516 41.9214L36.5175 36.3223L31.5516 30.7192C31.328 30.4701 31.348 30.0821 31.5915 29.8534C31.835 29.6247 32.2142 29.6451 32.4378 29.8943L37.7669 35.9058C37.9745 36.1386 37.9745 36.4939 37.7669 36.7307L32.4378 42.7422C32.322 42.877 32.1584 42.9464 31.9947 42.9464Z" fill="#5F82A6"/>
<path d="M16.8855 14.4326C16.7219 14.4326 16.5582 14.3632 16.4424 14.2325L11.1133 8.22102C10.9057 7.98824 10.9057 7.63294 11.1133 7.39607L16.4424 1.38865C16.666 1.13953 17.0412 1.11911 17.2887 1.34781C17.5322 1.5765 17.5522 1.96448 17.3286 2.21359L12.3628 7.80855L17.3286 13.4076C17.5522 13.6567 17.5322 14.0447 17.2887 14.2734C17.173 14.3795 17.0293 14.4326 16.8855 14.4326Z" fill="#333750"/>
<path d="M24.3543 22.6126C21.9751 22.6126 20.0391 20.881 20.0391 18.7574C20.0391 16.6338 21.9751 14.9022 24.3543 14.9022C26.7334 14.9022 28.6694 16.6338 28.6694 18.7574C28.6694 19.0963 28.402 19.37 28.0707 19.37C27.7393 19.37 27.4719 19.0963 27.4719 18.7574C27.4719 17.3076 26.0747 16.1273 24.3543 16.1273C22.6338 16.1273 21.2366 17.3076 21.2366 18.7574C21.2366 20.2072 22.6338 21.3874 24.3543 21.3874C24.6856 21.3874 24.953 21.661 24.953 22C24.953 22.339 24.6856 22.6126 24.3543 22.6126Z" fill="#333750"/>
<path d="M24.3543 29.1021C21.9751 29.1021 20.0391 27.3705 20.0391 25.2469C20.0391 24.9079 20.3065 24.6343 20.6378 24.6343C20.9692 24.6343 21.2366 24.9079 21.2366 25.2469C21.2366 26.6967 22.6338 27.8769 24.3543 27.8769C26.0747 27.8769 27.4719 26.6967 27.4719 25.2469C27.4719 23.7971 26.0747 22.6168 24.3543 22.6168C24.0229 22.6168 23.7555 22.3432 23.7555 22.0043C23.7555 21.6653 24.0229 21.3917 24.3543 21.3917C26.7334 21.3917 28.6694 23.1233 28.6694 25.2469C28.6694 27.3705 26.7334 29.1021 24.3543 29.1021Z" fill="#333750"/>
<path d="M24.3543 16.1275C24.0229 16.1275 23.7555 15.8539 23.7555 15.5149V13.2443C23.7555 12.9053 24.0229 12.6317 24.3543 12.6317C24.6856 12.6317 24.9531 12.9053 24.9531 13.2443V15.5149C24.9531 15.8539 24.6856 16.1275 24.3543 16.1275Z" fill="#5F82A6"/>
<path d="M24.3543 31.9117C24.0229 31.9117 23.7555 31.6381 23.7555 31.2991V29.0284C23.7555 28.6895 24.0229 28.4158 24.3543 28.4158C24.6856 28.4158 24.9531 28.6895 24.9531 29.0284V31.2991C24.9531 31.6381 24.6856 31.9117 24.3543 31.9117Z" fill="#5F82A6"/>
</g>
<defs>
<clipPath id="clip0">
<rect width="49" height="44" fill="white"/>
</clipPath>
</defs>
</svg>
